# This file uses centimeters as units for non-parametric coordinates.

mtllib leg1.mtl
g default
v -0.971627 13.675202 0.850839
v -0.976151 13.588881 0.116607
v -0.969286 13.887996 0.999315
v -0.968412 14.807588 0.891197
v -0.970056 13.761430 -0.077180
v -0.966209 14.681020 -0.185299
v -0.973341 13.727176 1.306600
v -0.968209 14.841029 1.175640
v -0.979291 13.529148 -0.353660
v -0.972369 14.645795 -0.484950
v -1.108742 13.757301 1.560477
v -1.107684 14.871012 1.429537
v -1.147865 13.501968 -0.580981
v -1.162465 14.619243 -0.712329
v -1.110400 14.807732 0.891282
v -1.111170 14.681168 -0.185213
v -1.107871 14.840369 1.168902
v -1.109054 14.645934 -0.484868
v -0.990155 12.892288 1.371450
v -0.994183 12.593247 -0.243614
v -1.126438 12.923603 1.635183
v -1.156247 12.566065 -0.470939
v -1.002176 12.149068 1.365542
v -1.040967 11.798332 -0.150122
v -1.163048 12.100676 1.651994
v -1.170002 11.691277 -0.368080
v -1.021333 11.516126 1.330014
v -1.036019 11.416482 0.194653
v -1.173391 11.308409 1.561883
v -1.181876 11.213101 0.028019
v -1.177474 10.585277 1.451608
v -1.076684 10.846372 1.221385
v -1.080203 11.089346 0.993367
v -1.179847 10.545620 1.140970
v -1.194605 10.864390 0.918530
v -1.952608 13.758162 1.560980
v -1.951550 14.871874 1.430039
v -1.954144 13.502792 -0.580500
v -1.953082 14.620049 -0.711858
v -1.955033 12.566880 -0.470464
v -1.954244 12.101482 1.652465
v -1.955870 11.685470 -0.366835
v -1.955106 11.309011 1.562372
v -1.953414 12.924448 1.635676
v -1.240976 11.308478 1.561923
v -1.245582 10.585345 1.451649
v -1.261170 11.686622 -0.367468
v -1.264421 11.213186 0.028068
v -1.245808 10.545687 1.141009
v -1.264246 10.864462 0.918572
v -1.261093 11.688218 -0.241862
v -1.955794 11.687064 -0.241229
v -1.241037 11.292570 1.445084
v -1.955191 11.293104 1.445532
v -1.241226 11.151278 1.370308
v -1.955380 11.151811 1.370756
v -1.951741 14.840458 1.162828
v -1.952916 14.647364 -0.479545
v -2.934601 13.677205 0.852008
v -2.931128 13.590876 0.117771
v -2.935399 14.980967 0.698725
v -2.935924 14.894642 -0.035510
v -2.936332 13.890001 1.000487
v -2.935458 14.809594 0.892369
v -2.937102 13.763436 -0.076009
v -2.939202 14.683032 -0.184125
v -2.932239 13.729173 1.307767
v -2.935255 14.843036 1.176811
v -2.928669 13.531137 -0.352499
v -2.933470 14.647795 -0.483782
v -2.796474 13.759023 1.561482
v -2.795416 14.872734 1.430542
v -2.760422 13.503614 -0.580020
v -2.743699 14.620854 -0.711387
v -2.793410 14.980822 0.698640
v -2.793470 14.809449 0.892284
v -2.793936 14.894498 -0.035595
v -2.794240 14.682884 -0.184211
v -2.795602 14.842090 1.169907
v -2.796785 14.647656 -0.483863
v -2.917051 12.894254 1.372598
v -2.915556 12.595208 -0.242470
v -2.780390 12.925291 1.636168
v -2.753819 12.567695 -0.469988
v -2.906553 12.151011 1.366676
v -2.870282 11.800198 -0.149033
v -2.745440 12.102288 1.652936
v -2.741726 11.692880 -0.367144
v -2.888730 11.518031 1.331126
v -2.875599 11.418358 0.195748
v -2.736820 11.310004 1.562814
v -2.730356 11.214682 0.028941
v -2.734344 10.586864 1.452535
v -2.834875 10.848166 1.222432
v -2.831131 11.091132 0.994409
v -2.732422 10.547204 1.141894
v -2.717278 10.865943 0.919437
v -2.669235 11.309935 1.562774
v -2.666235 10.586794 1.452495
v -2.650567 11.688038 -0.366640
v -2.647811 11.214598 0.028892
v -2.666461 10.547136 1.141855
v -2.647637 10.865871 0.919396
v -2.650491 11.689634 -0.241035
v -2.669345 11.294026 1.445934
v -2.669534 11.152735 1.371159
vt 0.228962 0.322942
vt 0.230628 0.354867
vt 0.240509 0.354357
vt 0.238517 0.315919
vt 0.192387 0.354970
vt 0.192002 0.323362
vt 0.181646 0.316722
vt 0.182074 0.355094
vt 0.250575 0.353815
vt 0.248367 0.315436
vt 0.171974 0.316762
vt 0.171904 0.355179
vt 0.204154 0.349695
vt 0.204104 0.347864
vt 0.200500 0.347992
vt 0.200461 0.349796
vt 0.218992 0.347881
vt 0.218941 0.349751
vt 0.222835 0.349778
vt 0.222883 0.348015
vt 0.197115 0.348088
vt 0.225856 0.347411
vt 0.197747 0.316673
vt 0.222868 0.316413
vt 0.236683 0.287678
vt 0.181172 0.284623
vt 0.246648 0.287324
vt 0.171636 0.284570
vt 0.180698 0.257192
vt 0.233400 0.262877
vt 0.244040 0.259928
vt 0.171596 0.254048
vt 0.230051 0.241599
vt 0.190900 0.242790
vt 0.238671 0.233245
vt 0.183527 0.235436
vt 0.231607 0.208992
vt 0.224213 0.219053
vt 0.216939 0.228026
vt 0.220658 0.208387
vt 0.213045 0.219673
vt 0.278326 0.351979
vt 0.275892 0.314734
vt 0.144527 0.317061
vt 0.144877 0.355503
vt 0.144259 0.284620
vt 0.144531 0.316884
vt 0.168389 0.253850
vt 0.144008 0.253829
vt 0.273293 0.284132
vt 0.269329 0.255608
vt 0.240988 0.232765
vt 0.181444 0.006991
vt 0.173870 0.005951
vt 0.173796 0.006698
vt 0.181097 0.007644
vt 0.264184 0.228187
vt 0.176176 0.031439
vt 0.179806 0.025006
vt 0.178912 0.024766
vt 0.175295 0.030878
vt 0.183007 0.010488
vt 0.182257 0.010433
vt 0.180461 0.013850
vt 0.179691 0.013638
vt 0.168369 0.249480
vt 0.143973 0.249462
vt 0.174752 0.029538
vt 0.166446 0.006774
vt 0.166453 0.008053
vt 0.173930 0.007992
vt 0.166462 0.009713
vt 0.174938 0.009228
vt 0.166573 0.029591
vt 0.196794 0.337205
vt 0.200264 0.337106
vt 0.226162 0.337216
vt 0.223145 0.337126
vt 0.066080 0.317529
vt 0.065672 0.362522
vt 0.091176 0.362574
vt 0.091251 0.317552
vt 0.060147 0.324104
vt 0.059756 0.355872
vt 0.097131 0.355949
vt 0.097125 0.324188
vt 0.050511 0.317325
vt 0.049754 0.355747
vt 0.107550 0.355881
vt 0.107384 0.317371
vt 0.040700 0.317073
vt 0.039610 0.355511
vt 0.117784 0.355758
vt 0.117065 0.317250
vt 0.203441 0.324367
vt 0.203470 0.326199
vt 0.206803 0.326150
vt 0.206780 0.324319
vt 0.216340 0.324325
vt 0.216317 0.326158
vt 0.219648 0.326206
vt 0.219680 0.324337
vt 0.199743 0.324432
vt 0.199867 0.326231
vt 0.223537 0.326253
vt 0.223575 0.324488
vt 0.196484 0.326313
vt 0.226473 0.327014
vt 0.107337 0.285231
vt 0.051858 0.289126
vt 0.041893 0.288950
vt 0.116877 0.285025
vt 0.107376 0.257791
vt 0.054755 0.264293
vt 0.044065 0.261517
vt 0.116428 0.254501
vt 0.057776 0.242974
vt 0.096946 0.243552
vt 0.049027 0.234755
vt 0.104202 0.236081
vt 0.055717 0.210405
vt 0.063263 0.220348
vt 0.070676 0.229202
vt 0.066652 0.209631
vt 0.074438 0.220792
vt 0.012151 0.317225
vt 0.010735 0.354439
vt 0.119630 0.254250
vt 0.014198 0.286268
vt 0.017718 0.257623
vt 0.046703 0.234310
vt 0.151451 0.007158
vt 0.151804 0.007807
vt 0.159094 0.006780
vt 0.159012 0.006033
vt 0.022457 0.230108
vt 0.156990 0.031546
vt 0.157865 0.030975
vt 0.154180 0.024903
vt 0.153289 0.025153
vt 0.149927 0.010672
vt 0.150676 0.010609
vt 0.152510 0.014006
vt 0.153277 0.013785
vt 0.119580 0.249881
vt 0.158393 0.029629
vt 0.158975 0.008076
vt 0.157981 0.009322
vn 0.999963 -0.006148 0.006105
vn 0.999979 -0.002245 0.006027
vn 0.999979 -0.002245 0.006027
vn 0.999933 -0.010717 0.004466
vn 0.999703 -0.007992 -0.023005
vn 0.999783 -0.011167 -0.017600
vn 0.999703 -0.013022 -0.020617
vn 0.999703 -0.007992 -0.023005
vn 0.883286 0.038763 0.467229
vn 0.880790 0.052875 0.470545
vn 0.880790 0.052875 0.470545
vn 0.883251 0.038971 0.467278
vn 0.787216 -0.069336 -0.612767
vn 0.797856 -0.073350 -0.598369
vn 0.797919 -0.073374 -0.598282
vn 0.787216 -0.069336 -0.612767
vn 0.000939 0.993159 -0.116768
vn 0.000939 0.993159 -0.116768
vn 0.000939 0.993159 -0.116768
vn 0.000939 0.993159 -0.116768
vn 0.000943 0.993159 -0.116766
vn 0.000943 0.993159 -0.116766
vn 0.000943 0.993159 -0.116766
vn 0.000943 0.993159 -0.116766
vn 0.000940 0.993159 -0.116769
vn 0.000940 0.993159 -0.116769
vn 0.000940 0.993159 -0.116769
vn 0.000942 0.993160 -0.116754
vn 0.000942 0.993160 -0.116754
vn 0.000942 0.993160 -0.116754
vn 0.999784 -0.020754 0.000962
vn 0.999794 -0.020289 0.000621
vn 0.999524 -0.030674 -0.003197
vn 0.999484 -0.031890 -0.003787
vn 0.883418 -0.001172 0.468584
vn 0.883204 -0.002673 0.468981
vn 0.827148 -0.084757 -0.555556
vn 0.827506 -0.084899 -0.555002
vn 0.999422 -0.032767 -0.009014
vn 0.999420 -0.032860 -0.008960
vn 0.873783 -0.043333 0.484382
vn 0.874770 -0.040323 0.482858
vn 0.865423 -0.186634 -0.464985
vn 0.866437 -0.193629 -0.460211
vn 0.999213 -0.035785 -0.017090
vn 0.991845 -0.119103 -0.045355
vn 0.866343 -0.071019 0.494374
vn 0.872566 -0.067131 0.483861
vn 0.873735 -0.321481 -0.365017
vn 0.873735 -0.321481 -0.365017
vn 0.948345 -0.188741 0.254989
vn 0.958091 -0.160811 0.237069
vn 0.955635 -0.169455 -0.240928
vn 0.959822 -0.265336 -0.091319
vn 0.942379 -0.332683 0.035275
vn 0.888127 -0.416670 -0.193952
vn 0.880245 -0.450052 -0.150406
vn 0.906099 -0.213085 -0.365485
vn 0.000699 0.105164 0.994455
vn 0.000711 0.116766 0.993159
vn 0.000711 0.116766 0.993159
vn 0.000699 0.105077 0.994464
vn -0.000711 -0.116767 -0.993159
vn -0.000711 -0.116767 -0.993159
vn -0.000711 -0.116767 -0.993159
vn -0.000711 -0.116767 -0.993159
vn -0.000710 -0.116767 -0.993159
vn -0.000710 -0.116767 -0.993159
vn -0.000710 -0.116766 -0.993159
vn -0.000710 -0.116766 -0.993159
vn 0.000652 0.056390 0.998409
vn 0.000651 0.055689 0.998448
vn 0.000568 -0.039918 0.999203
vn 0.000565 -0.042928 0.999078
vn 0.000474 -0.113015 0.993593
vn 0.000474 -0.113015 0.993593
vn 0.000474 -0.113015 0.993593
vn 0.000435 -0.150756 0.988571
vn 0.000435 -0.150756 0.988571
vn 0.000435 -0.150756 0.988571
vn 0.000435 -0.150756 0.988571
vn 0.000506 -0.112988 0.993596
vn 0.000506 -0.112988 0.993596
vn -0.000710 -0.116767 -0.993159
vn -0.000710 -0.116767 -0.993159
vn -0.000710 -0.116767 -0.993159
vn 0.013899 -0.639597 -0.768584
vn 0.013899 -0.639597 -0.768584
vn 0.013899 -0.639597 -0.768584
vn 0.013899 -0.639597 -0.768584
vn -0.000926 -0.991948 0.126641
vn -0.000926 -0.991948 0.126641
vn -0.000926 -0.991948 0.126641
vn -0.000926 -0.991948 0.126641
vn -0.001073 -0.572285 -0.820054
vn -0.001073 -0.572285 -0.820054
vn -0.001073 -0.572285 -0.820054
vn -0.001073 -0.572285 -0.820054
vn -0.001174 -0.931148 -0.364640
vn -0.001174 -0.931148 -0.364640
vn -0.001174 -0.931148 -0.364640
vn -0.001174 -0.931148 -0.364640
vn 0.001671 -0.999918 0.012698
vn 0.001671 -0.999918 0.012698
vn 0.001671 -0.999918 0.012698
vn 0.001671 -0.999918 0.012698
vn -0.999973 0.007298 0.000516
vn -0.999973 0.007298 0.000516
vn -0.999973 0.007298 0.000516
vn -0.000656 -0.990859 0.134901
vn -0.000656 -0.990859 0.134901
vn -0.000656 -0.990859 0.134901
vn -0.000656 -0.990859 0.134901
vn 0.000205 -0.467758 0.883856
vn 0.000205 -0.467758 0.883856
vn 0.000205 -0.467758 0.883857
vn 0.000205 -0.467758 0.883857
vn 0.000177 -0.948906 -0.315560
vn 0.000177 -0.948906 -0.315560
vn 0.000177 -0.948906 -0.315560
vn 0.000177 -0.948906 -0.315560
vn -0.999372 0.030110 0.018659
vn -0.999372 0.030110 0.018659
vn -0.999372 0.030110 0.018659
vn -0.999372 0.030110 0.018659
vn -0.999979 0.006423 -0.000345
vn -0.999978 0.006410 -0.001800
vn -0.999973 0.006393 -0.003541
vn -0.999935 0.006338 -0.009454
vn -0.998040 -0.015412 0.060645
vn -0.998040 -0.015412 0.060645
vn -0.998040 -0.015412 0.060645
vn -0.999971 0.007660 -0.000252
vn -0.999971 0.007660 -0.000252
vn -0.999971 0.007660 -0.000252
vn 0.000945 0.993159 -0.116766
vn 0.000945 0.993159 -0.116766
vn 0.000945 0.993159 -0.116766
vn 0.000945 0.993159 -0.116766
vn 0.000945 0.993159 -0.116768
vn 0.000945 0.993159 -0.116768
vn 0.000945 0.993159 -0.116768
vn 0.000945 0.993159 -0.116768
vn -0.999932 -0.011651 0.000236
vn -0.999996 -0.002349 -0.001731
vn -0.999996 -0.002349 -0.001731
vn -0.999928 -0.011940 0.001554
vn -0.999992 -0.002843 0.002837
vn -0.999987 -0.000572 -0.005163
vn -0.999987 -0.000572 -0.005163
vn -0.999635 0.000074 0.027003
vn -0.999635 0.000074 0.027003
vn -0.999981 -0.005979 -0.001550
vn -0.999946 -0.008677 0.005657
vn -0.999974 -0.000205 0.007217
vn -0.999974 -0.000205 0.007217
vn -0.999744 -0.005953 -0.021815
vn -0.999744 -0.005953 -0.021815
vn -0.999751 -0.010982 -0.019428
vn -0.882648 0.040564 0.468281
vn -0.882612 0.040773 0.468330
vn -0.880119 0.054672 0.471594
vn -0.880119 0.054672 0.471594
vn -0.788085 -0.067729 -0.611829
vn -0.788085 -0.067729 -0.611829
vn -0.798779 -0.071746 -0.597331
vn -0.798716 -0.071722 -0.597418
vn 0.001160 0.748857 0.662731
vn 0.001160 0.748857 0.662731
vn 0.001160 0.748857 0.662731
vn 0.001160 0.748857 0.662731
vn 0.000097 0.574724 -0.818347
vn 0.000097 0.574724 -0.818347
vn 0.000097 0.574724 -0.818347
vn 0.000097 0.574724 -0.818347
vn 0.000950 0.993159 -0.116767
vn 0.000950 0.993159 -0.116767
vn 0.000950 0.993159 -0.116767
vn 0.000950 0.993159 -0.116767
vn 0.000939 0.993159 -0.116766
vn 0.000939 0.993159 -0.116766
vn 0.000939 0.993159 -0.116766
vn 0.000939 0.993159 -0.116766
vn 0.000955 0.993159 -0.116769
vn 0.000955 0.993159 -0.116769
vn 0.000955 0.993159 -0.116769
vn 0.000935 0.993159 -0.116769
vn 0.000935 0.993159 -0.116769
vn 0.000935 0.993159 -0.116769
vn -0.999551 -0.029851 -0.002597
vn -0.999588 -0.028634 -0.002007
vn -0.882648 -0.000872 0.470034
vn -0.882860 0.000630 0.469637
vn -0.828338 -0.083210 -0.554015
vn -0.827981 -0.083068 -0.554570
vn -0.999497 -0.030728 -0.007824
vn -0.999495 -0.030821 -0.007770
vn -0.874274 -0.038539 0.483900
vn -0.873291 -0.041551 0.485423
vn -0.867378 -0.191860 -0.459179
vn -0.866355 -0.184868 -0.463953
vn -0.999304 -0.033747 -0.015901
vn -0.992140 -0.117080 -0.044173
vn -0.872125 -0.065351 0.484900
vn -0.865897 -0.069252 0.495405
vn -0.874822 -0.319700 -0.363975
vn -0.874822 -0.319700 -0.363975
vn -0.948424 -0.186806 0.256115
vn -0.958134 -0.158856 0.238209
vn -0.960469 -0.263378 -0.090175
vn -0.956266 -0.167504 -0.239788
vn -0.943013 -0.330759 0.036393
vn -0.889205 -0.414857 -0.192893
vn -0.881340 -0.448256 -0.149356
vn -0.906967 -0.211234 -0.364404
vn 0.000699 0.105164 0.994455
vn 0.000699 0.105077 0.994464
vn 0.000710 0.116766 0.993159
vn 0.000710 0.116766 0.993159
vn -0.000711 -0.116767 -0.993159
vn -0.000711 -0.116767 -0.993159
vn -0.000711 -0.116766 -0.993159
vn -0.000711 -0.116766 -0.993159
vn -0.000710 -0.116766 -0.993159
vn -0.000710 -0.116766 -0.993159
vn -0.000710 -0.116766 -0.993159
vn -0.000710 -0.116766 -0.993159
vn 0.000652 0.056390 0.998409
vn 0.000651 0.055689 0.998448
vn 0.000541 -0.039918 0.999203
vn 0.000537 -0.042928 0.999078
vn 0.000473 -0.113014 0.993593
vn 0.000473 -0.113014 0.993593
vn 0.000473 -0.113014 0.993593
vn 0.000435 -0.150756 0.988571
vn 0.000435 -0.150756 0.988571
vn 0.000435 -0.150756 0.988571
vn 0.000435 -0.150756 0.988571
vn 0.000447 -0.112989 0.993596
vn 0.000447 -0.112989 0.993596
vn -0.000711 -0.116766 -0.993159
vn -0.000711 -0.116766 -0.993159
vn -0.000711 -0.116766 -0.993159
vn -0.016124 -0.639568 -0.768566
vn -0.016124 -0.639568 -0.768565
vn -0.016124 -0.639568 -0.768566
vn -0.016124 -0.639568 -0.768565
vn -0.000948 -0.991949 0.126638
vn -0.000948 -0.991949 0.126638
vn -0.000948 -0.991949 0.126638
vn -0.000948 -0.991949 0.126638
vn -0.001073 -0.572286 -0.820053
vn -0.001073 -0.572286 -0.820053
vn -0.001073 -0.572286 -0.820053
vn -0.001073 -0.572286 -0.820053
vn -0.001168 -0.931148 -0.364641
vn -0.001168 -0.931148 -0.364641
vn -0.001168 -0.931148 -0.364641
vn -0.001168 -0.931148 -0.364641
vn -0.003694 -0.999913 0.012699
vn -0.003694 -0.999913 0.012699
vn -0.003694 -0.999913 0.012699
vn -0.003694 -0.999913 0.012699
vn 0.999986 0.005255 -0.000674
vn 0.999986 0.005255 -0.000674
vn 0.999986 0.005255 -0.000674
vn -0.001204 -0.990858 0.134903
vn -0.001204 -0.990858 0.134903
vn -0.001204 -0.990858 0.134903
vn -0.001204 -0.990858 0.134903
vn -0.000107 -0.467756 0.883858
vn -0.000107 -0.467756 0.883858
vn -0.000107 -0.467756 0.883858
vn -0.000107 -0.467756 0.883858
vn -0.002487 -0.948903 -0.315557
vn -0.002487 -0.948903 -0.315557
vn -0.002487 -0.948903 -0.315557
vn -0.002487 -0.948903 -0.315557
vn 0.999453 0.028070 0.017468
vn 0.999453 0.028070 0.017468
vn 0.999453 0.028070 0.017468
vn 0.999453 0.028070 0.017468
vn 0.999989 0.004382 -0.001537
vn 0.999979 0.004353 -0.004732
vn 0.999986 0.004369 -0.002992
vn 0.999934 0.004298 -0.010643
vn 0.998078 -0.017449 0.059456
vn 0.998078 -0.017449 0.059456
vn 0.998078 -0.017449 0.059456
vn 0.999983 0.005621 -0.001442
vn 0.999983 0.005621 -0.001442
vn 0.999983 0.005621 -0.001442
vn 0.000941 0.993159 -0.116766
vn 0.000941 0.993159 -0.116766
vn 0.000941 0.993159 -0.116766
vn 0.000941 0.993159 -0.116766
vn 0.000942 0.993159 -0.116767
vn 0.000942 0.993159 -0.116767
vn 0.000942 0.993159 -0.116767
vn 0.000942 0.993159 -0.116767
vn 0.000942 0.993158 -0.116772
vn 0.000942 0.993158 -0.116772
vn 0.000942 0.993158 -0.116772
vn 0.000942 0.993158 -0.116772
s 1
g polySurface116 group1 uploads_files_730998_Gundam:polySurface666
usemtl uploads_files_730998_Gundam:lambert10SG
f 3/1/1 4/2/2 8/3/3 7/4/4
f 6/5/5 5/6/6 9/7/7 10/8/8
s 3
f 7/4/9 8/3/10 12/9/11 11/10/12
s 4
f 10/8/13 9/7/14 13/11/15 14/12/16
s off
f 4/13/17 15/14/18 17/15/19 8/16/20
f 16/17/21 6/18/22 10/19/23 18/20/24
f 8/16/25 17/15/26 12/21/27
f 18/20/28 10/19/29 14/22/30
s 1
f 2/23/31 1/24/32 19/25/33 20/26/34
f 1/24/32 3/1/1 19/25/33
f 5/6/6 2/23/31 20/26/34
f 3/1/1 7/4/4 19/25/33
f 9/7/7 5/6/6 20/26/34
s 3
f 7/4/9 11/10/12 21/27/35 19/25/36
s 4
f 13/11/15 9/7/14 20/26/37 22/28/38
s 1
f 24/29/39 20/26/34 19/25/33 23/30/40
s 3
f 19/25/36 21/27/35 25/31/41 23/30/42
s 4
f 22/28/38 20/26/37 24/29/43 26/32/44
s 1
f 27/33/45 28/34/46 24/29/39 23/30/40
s 3
f 23/30/42 25/31/41 29/35/47 27/33/48
s 4
f 26/32/44 24/29/43 28/34/49 30/36/50
s 3
f 27/33/48 29/35/47 31/37/51
f 27/33/48 31/37/51 32/38/52
s 1
f 27/33/45 32/38/53 33/39/54
f 28/34/46 27/33/45 33/39/54
s 3
f 32/38/52 31/37/51 34/40/55
s 1
f 33/39/54 32/38/53 35/41/56
f 28/34/46 33/39/54 35/41/56 30/36/57
f 35/41/56 32/38/53 34/40/58
s 7
f 11/10/59 12/9/60 37/42/61 36/43/62
s 8
f 14/12/63 13/11/64 38/44/65 39/45/66
f 13/11/64 22/28/67 40/46/68 38/47/65
f 22/28/67 47/48/69 42/49/70 40/46/68
s 7
f 21/27/71 11/10/59 36/43/62 44/50/72
f 25/31/73 21/27/71 44/50/72 41/51/74
s off
f 29/35/75 25/31/76 45/52/77
f 31/53/78 29/54/79 45/55/80 46/56/81
s 7
f 45/52/82 25/31/73 41/51/74 43/57/83
s off
f 22/28/84 26/32/85 47/48/86
f 26/58/87 30/59/88 48/60/89 47/61/90
f 34/62/91 31/53/92 46/56/93 49/63/94
f 35/64/95 34/62/96 49/63/97 50/65/98
f 30/59/99 35/64/100 50/65/101 48/60/102
f 42/49/103 47/48/104 51/66/105 52/67/106
f 51/68/107 47/61/108 48/60/109
f 45/55/110 43/69/111 54/70/112 53/71/113
f 53/71/114 54/70/115 56/72/116 55/73/117
f 55/73/118 56/72/119 52/74/120 51/68/121
f 55/73/122 51/68/123 48/60/124 50/65/125
s 9
f 45/55/126 53/71/127 46/56/128
f 53/71/127 55/73/129 46/56/128
s off
f 50/65/130 49/63/131 55/73/132
f 46/56/133 55/73/134 49/63/135
f 37/75/136 12/21/137 17/15/138 57/76/139
f 14/22/140 39/77/141 58/78/142 18/20/143
s 10
f 59/79/144 61/80/145 62/81/146 60/82/147
f 59/79/144 63/83/148 64/84/149 61/80/150
f 62/81/151 66/85/152 65/86/153 60/82/147
f 63/83/148 67/87/154 68/88/155 64/84/156
f 66/85/157 70/89/158 69/90/159 65/86/153
s 15
f 67/87/160 71/91/161 72/92/162 68/88/163
s 16
f 70/89/164 74/93/165 73/94/166 69/90/167
s off
f 64/95/168 76/96/169 75/97/170 61/98/171
f 62/99/172 77/100/173 78/101/174 66/102/175
f 64/95/176 68/103/177 79/104/178 76/96/179
f 78/101/180 80/105/181 70/106/182 66/102/183
f 68/103/184 72/107/185 79/104/186
f 80/105/187 74/108/188 70/106/189
s 10
f 60/82/147 82/109/190 81/110/191 59/79/144
f 59/79/144 81/110/191 63/83/148
f 65/86/153 82/109/190 60/82/147
f 63/83/148 81/110/191 67/87/154
f 69/90/159 82/109/190 65/86/153
s 15
f 67/87/160 81/110/192 83/111/193 71/91/161
s 16
f 73/94/166 84/112/194 82/109/195 69/90/167
s 10
f 86/113/196 85/114/197 81/110/191 82/109/190
s 15
f 81/110/192 85/114/198 87/115/199 83/111/193
s 16
f 84/112/194 88/116/200 86/113/201 82/109/195
s 10
f 89/117/202 85/114/197 86/113/196 90/118/203
s 15
f 85/114/198 89/117/204 91/119/205 87/115/199
s 16
f 88/116/200 92/120/206 90/118/207 86/113/201
s 15
f 89/117/204 93/121/208 91/119/205
f 89/117/204 94/122/209 93/121/208
s 10
f 89/117/202 95/123/210 94/122/211
f 90/118/203 95/123/210 89/117/202
s 15
f 94/122/209 96/124/212 93/121/208
s 10
f 95/123/210 97/125/213 94/122/211
f 90/118/203 92/120/214 97/125/213 95/123/210
f 97/125/213 96/124/215 94/122/211
s 17
f 71/91/216 36/126/217 37/127/218 72/92/219
s 18
f 74/93/220 39/45/221 38/44/222 73/94/223
f 73/94/223 38/47/222 40/46/224 84/112/225
f 84/112/225 40/46/224 42/49/226 100/128/227
s 17
f 83/111/228 44/129/229 36/126/217 71/91/216
f 87/115/230 41/130/231 44/129/229 83/111/228
s off
f 91/119/232 98/131/233 87/115/234
f 93/132/235 99/133/236 98/134/237 91/135/238
s 17
f 98/131/239 43/136/240 41/130/231 87/115/230
s off
f 84/112/241 100/128/242 88/116/243
f 88/137/244 100/138/245 101/139/246 92/140/247
f 96/141/248 102/142/249 99/133/250 93/132/251
f 97/143/252 103/144/253 102/142/254 96/141/255
f 92/140/256 101/139/257 103/144/258 97/143/259
f 42/49/260 52/67/261 104/145/262 100/128/263
f 104/146/264 101/139/265 100/138/266
f 98/134/267 105/147/268 54/70/269 43/69/270
f 105/147/271 106/148/272 56/72/273 54/70/274
f 106/148/275 104/146/276 52/74/277 56/72/278
f 106/148/279 103/144/280 101/139/281 104/146/282
s 19
f 98/134/283 99/133/284 105/147/285
f 105/147/285 99/133/284 106/148/286
s off
f 103/144/287 106/148/288 102/142/289
f 99/133/290 102/142/291 106/148/292
f 61/98/293 75/97/294 77/100/295 62/99/296
f 37/75/297 57/76/298 79/104/299 72/107/300
f 74/108/301 80/105/302 58/78/303 39/77/304
