# This file uses centimeters as units for non-parametric coordinates.

mtllib shoulder2.mtl
g default
v 2.954919 22.374216 1.028941
v 4.991521 22.591345 1.028941
v 2.954920 22.374218 0.167112
v 4.991522 22.591345 0.167112
v 5.328727 22.330730 1.028941
v 5.328728 22.330730 0.167112
v 5.337230 22.250977 1.028941
v 5.337231 22.250977 0.167112
v 3.023852 21.727640 1.028941
v 3.023853 21.727642 0.167112
v 5.220102 21.964594 1.028941
v 5.220103 21.964594 0.167112
v 2.954919 22.374216 -0.694717
v 4.991521 22.591345 -0.694717
v 5.328727 22.330730 -0.694717
v 5.337230 22.250977 -0.694717
v 3.023852 21.727640 -0.694717
v 5.220102 21.964594 -0.694717
vt 0.647019 0.729045
vt 0.647032 0.708850
vt 0.695007 0.708874
vt 0.694998 0.729060
vt 0.704057 0.729063
vt 0.704060 0.708884
vt 0.572703 0.729017
vt 0.571209 0.729017
vt 0.571220 0.708804
vt 0.572715 0.708805
vt 0.631779 0.729040
vt 0.631791 0.708830
vt 0.579962 0.729020
vt 0.579971 0.708804
vt 0.694995 0.749245
vt 0.647019 0.749241
vt 0.704051 0.749241
vt 0.572700 0.749231
vt 0.571205 0.749230
vt 0.631776 0.749251
vt 0.579956 0.749237
vn -0.106012 0.994365 0.000000
vn -0.106012 0.994365 0.000000
vn -0.106012 0.994365 0.000000
vn -0.106012 0.994365 0.000000
vn 0.611516 0.791232 0.000000
vn 0.611516 0.791232 0.000000
vn 0.611516 0.791232 0.000000
vn 0.611516 0.791232 0.000000
vn 0.958698 -0.284426 0.000001
vn 0.994365 0.106013 0.000001
vn 0.994365 0.106013 0.000001
vn 0.958698 -0.284426 0.000001
vn -0.994365 -0.106012 -0.000001
vn -0.994365 -0.106012 -0.000001
vn -0.994365 -0.106012 -0.000001
vn -0.994365 -0.106012 -0.000001
vn 0.925579 -0.378554 0.000001
vn 0.925579 -0.378554 0.000001
vn 0.107267 -0.994230 -0.000001
vn 0.107267 -0.994230 -0.000001
vn 0.107267 -0.994230 -0.000001
vn 0.107267 -0.994230 -0.000001
vn -0.106012 0.994365 0.000001
vn -0.106012 0.994365 0.000001
vn -0.106012 0.994365 0.000001
vn -0.106012 0.994365 0.000001
vn 0.611516 0.791232 0.000000
vn 0.611516 0.791233 0.000000
vn 0.611516 0.791232 0.000000
vn 0.611516 0.791233 0.000000
vn 0.958698 -0.284426 -0.000001
vn 0.958698 -0.284426 -0.000001
vn 0.994365 0.106013 -0.000001
vn 0.994365 0.106013 -0.000001
vn -0.994365 -0.106012 0.000001
vn -0.994365 -0.106012 0.000001
vn -0.994365 -0.106012 0.000001
vn -0.994365 -0.106012 0.000001
vn 0.925579 -0.378555 -0.000001
vn 0.925579 -0.378555 -0.000001
vn 0.107267 -0.994230 0.000002
vn 0.107267 -0.994230 0.000002
vn 0.107267 -0.994230 0.000002
vn 0.107267 -0.994230 0.000002
s off
g polySurface12 group1 uploads_files_730998_Gundam:polySurface666
usemtl uploads_files_730998_Gundam:lambert10SG
f 3/1/1 1/2/2 2/3/3 4/4/4
f 6/5/5 4/4/6 2/3/7 5/6/8
s 1
f 8/7/9 6/8/10 5/9/11 7/10/12
s off
f 3/1/13 10/11/14 9/12/15 1/2/16
s 1
f 12/13/17 8/7/9 7/10/12 11/14/18
s off
f 11/14/19 9/12/20 10/11/21 12/13/22
f 3/1/23 4/4/24 14/15/25 13/16/26
f 6/5/27 15/17/28 14/15/29 4/4/30
s 2
f 8/7/31 16/18/32 15/19/33 6/8/34
s off
f 3/1/35 13/16/36 17/20/37 10/11/38
s 2
f 12/13/39 18/21/40 16/18/32 8/7/31
s off
f 18/21/41 12/13/42 10/11/43 17/20/44
g default
v 3.272503 19.775551 1.530107
v 4.695588 20.292372 1.530107
v 3.012864 22.210901 1.530107
v 4.919668 22.414190 1.530107
v 4.976381 20.626560 1.530107
v 5.201271 22.170023 1.530107
v 2.976736 19.981335 1.530107
v 2.770881 21.912205 1.530107
v 5.153196 20.563446 1.155323
v 5.405762 22.273163 1.155308
v 2.819400 19.887299 1.155328
v 2.594464 21.971766 1.155308
v 2.925138 22.380323 1.155318
v 4.975192 22.601852 1.155318
v 4.815892 20.176947 1.155328
v 3.227332 19.616667 1.155329
v 5.153196 20.563446 1.030908
v 5.405762 22.273163 1.030893
v 2.819400 19.887299 1.030913
v 2.594464 21.971764 1.030893
v 2.925138 22.380323 1.027369
v 4.975192 22.601852 1.027369
v 4.815892 20.176947 1.027380
v 3.227332 19.616667 1.027380
v 5.073010 20.605377 1.030772
v 5.306198 22.183920 1.030759
v 2.918270 19.981106 1.030777
v 2.710592 21.905645 1.030759
v 3.015895 22.282858 1.027505
v 4.908663 22.487391 1.027505
v 4.761585 20.248529 1.027514
v 3.294904 19.731237 1.027516
v 5.073010 20.605377 1.152823
v 5.306198 22.183920 1.152822
v 2.918270 19.981106 1.152823
v 2.710592 21.905645 1.152822
v 3.015895 22.282858 1.152615
v 4.908663 22.487391 1.152615
v 4.761585 20.248529 1.152615
v 3.294904 19.731237 1.152615
vt 0.873476 0.645035
vt 0.846595 0.621602
vt 0.858917 0.574841
vt 0.899517 0.595673
vt 0.843777 0.612033
vt 0.851286 0.578629
vt 0.901528 0.604206
vt 0.881284 0.642552
vt 0.834809 0.610798
vt 0.843321 0.573722
vt 0.910380 0.606601
vt 0.888355 0.648417
vt 0.910826 0.594008
vt 0.861659 0.564995
vt 0.905594 0.587610
vt 0.852527 0.565448
vt 0.836034 0.622771
vt 0.869145 0.653730
vt 0.838865 0.627398
vt 0.878512 0.655039
vt 0.832094 0.610304
vt 0.840799 0.572782
vt 0.912984 0.607777
vt 0.890712 0.649884
vt 0.914317 0.594346
vt 0.850098 0.563009
vt 0.832741 0.622912
vt 0.880760 0.657737
vt 0.862981 0.562157
vt 0.907087 0.584869
vt 0.867173 0.656048
vt 0.836832 0.629646
vt 0.830341 0.609144
vt 0.838342 0.574680
vt 0.776501 0.618614
vt 0.776337 0.572674
vt 0.778780 0.574465
vt 0.778933 0.616730
vt 0.786000 0.563046
vt 0.787793 0.565417
vt 0.830804 0.563033
vt 0.829034 0.565402
vt 0.822604 0.619230
vt 0.821566 0.617476
vt 0.786449 0.626982
vt 0.788320 0.624622
vt 0.827910 0.608132
vt 0.835956 0.574837
vt 0.781234 0.574958
vt 0.781332 0.616232
vt 0.788247 0.567902
vt 0.828594 0.567897
vt 0.820644 0.614980
vt 0.788399 0.622183
vn 0.000000 0.000000 1.000000
vn 0.000000 0.000000 1.000000
vn 0.000000 0.000000 1.000000
vn 0.000000 0.000000 1.000000
vn 0.000000 0.000000 1.000000
vn 0.000000 0.000000 1.000000
vn 0.000000 0.000000 1.000000
vn 0.000000 0.000000 1.000000
vn 0.886521 -0.130109 0.444018
vn 0.886521 -0.130109 0.444018
vn 0.930335 -0.136781 0.340247
vn 0.935036 -0.137501 0.326804
vn -0.907524 -0.097363 0.408559
vn -0.907524 -0.097363 0.408559
vn -0.946508 -0.101712 0.306230
vn -0.946451 -0.101706 0.306408
vn -0.704426 0.570361 0.422459
vn -0.704426 0.570361 0.422459
vn -0.739459 0.598655 0.307916
vn -0.739037 0.598314 0.309589
vn -0.096303 0.896985 0.431444
vn -0.096303 0.896985 0.431444
vn -0.101198 0.940835 0.323401
vn -0.101165 0.940548 0.324247
vn 0.556153 0.691399 0.461152
vn 0.556153 0.691399 0.461152
vn 0.584850 0.739242 0.333874
vn 0.584074 0.737875 0.338227
vn 0.690665 -0.592345 0.414861
vn 0.690665 -0.592345 0.414861
vn 0.718704 -0.619293 0.316133
vn 0.720527 -0.621077 0.308391
vn 0.314967 -0.880668 0.353863
vn 0.314967 -0.880668 0.353863
vn 0.324259 -0.910398 0.256964
vn 0.324052 -0.909718 0.259622
vn -0.514860 -0.760485 0.395703
vn -0.514860 -0.760485 0.395703
vn -0.534856 -0.794931 0.286381
vn -0.534288 -0.793924 0.290208
vn 0.989264 -0.146138 0.000000
vn 0.989264 -0.146138 0.000000
vn -0.994228 -0.107287 0.000000
vn -0.994228 -0.107287 0.000000
vn -0.777305 0.629124 -0.000000
vn -0.777305 0.629124 -0.000000
vn 0.606786 0.794865 0.000000
vn 0.606786 0.794865 0.000000
vn 0.753429 -0.657529 0.000000
vn 0.753429 -0.657529 0.000000
vn -0.552828 -0.833296 0.000000
vn -0.552828 -0.833296 0.000000
vn -0.107435 0.994212 0.000000
vn -0.107435 0.994212 0.000000
vn 0.332615 -0.943063 0.000000
vn 0.332615 -0.943063 0.000000
vn 0.001560 -0.000239 -0.999999
vn 0.001560 -0.000239 -0.999999
vn 0.001560 -0.000239 -0.999999
vn 0.001560 -0.000239 -0.999999
vn -0.001236 -0.000143 -0.999999
vn -0.001236 -0.000143 -0.999999
vn -0.001236 -0.000143 -0.999999
vn -0.001236 -0.000143 -0.999999
vn -0.004153 -0.005264 -0.999978
vn -0.004153 -0.005264 -0.999978
vn -0.004153 -0.005264 -0.999978
vn -0.004153 -0.005264 -0.999978
vn 0.005040 -0.004119 -0.999979
vn 0.005040 -0.004119 -0.999979
vn 0.005040 -0.004119 -0.999979
vn 0.005040 -0.004119 -0.999979
vn 0.004438 0.005255 -0.999976
vn 0.004438 0.005255 -0.999976
vn 0.004438 0.005255 -0.999976
vn 0.004438 0.005255 -0.999976
vn -0.005660 0.004521 -0.999974
vn -0.005660 0.004521 -0.999974
vn -0.005660 0.004521 -0.999974
vn -0.005660 0.004521 -0.999974
vn 0.000137 -0.001267 -0.999999
vn 0.000137 -0.001267 -0.999999
vn 0.000137 -0.001267 -0.999999
vn 0.000137 -0.001267 -0.999999
vn -0.000526 0.001491 -0.999999
vn -0.000526 0.001491 -0.999999
vn -0.000526 0.001491 -0.999999
vn -0.000526 0.001491 -0.999999
vn -0.989264 0.146137 0.000000
vn -0.989264 0.146137 0.000000
vn -0.989264 0.146137 0.000000
vn -0.989264 0.146137 0.000000
vn 0.994228 0.107287 0.000000
vn 0.994228 0.107287 0.000000
vn 0.994228 0.107287 0.000000
vn 0.994228 0.107287 0.000000
vn 0.777305 -0.629124 0.000000
vn 0.777305 -0.629124 0.000000
vn 0.777305 -0.629124 0.000000
vn 0.777305 -0.629124 0.000000
vn -0.606786 -0.794865 0.000000
vn -0.606786 -0.794865 0.000000
vn -0.606786 -0.794865 0.000000
vn -0.606786 -0.794865 0.000000
vn -0.753430 0.657528 0.000000
vn -0.439809 0.898091 0.000000
vn -0.440193 0.897903 0.000000
vn -0.753430 0.657528 0.000000
vn 0.552828 0.833295 0.000000
vn 0.552828 0.833295 0.000000
vn 0.552828 0.833295 0.000000
vn 0.552828 0.833295 0.000000
vn 0.107435 -0.994212 0.000000
vn 0.107435 -0.994212 0.000000
vn 0.107435 -0.994212 0.000000
vn 0.107435 -0.994212 0.000000
vn -0.332614 0.943063 0.000000
vn -0.332614 0.943063 0.000000
vn 0.000806 -0.000120 -1.000000
vn 0.000806 -0.000120 -1.000000
vn 0.000806 -0.000120 -1.000000
vn -0.000092 -0.000011 -1.000000
vn -0.000092 -0.000011 -1.000000
vn -0.000092 -0.000011 -1.000000
vn 0.000065 -0.000603 -1.000000
vn 0.000065 -0.000603 -1.000000
vn 0.000065 -0.000603 -1.000000
vn 0.000497 -0.000033 -1.000000
vn 0.000497 -0.000033 -1.000000
vn 0.000497 -0.000033 -1.000000
vn -0.000124 0.000072 -1.000000
vn -0.000124 0.000072 -1.000000
vn -0.000124 0.000072 -1.000000
vn -0.000124 0.000072 -1.000000
s 1
g group1 uploads_files_730998_Gundam:polySurface666 polySurface9
usemtl uploads_files_730998_Gundam:lambert10SG
f 19/22/45 20/23/46 22/24/47 21/25/48
f 22/24/47 20/23/46 23/26/49 24/27/50
f 19/22/45 21/25/48 26/28/51 25/29/52
s 2
f 24/27/53 23/26/54 27/30/55 28/31/56
s 3
f 25/29/57 26/28/58 30/32/59 29/33/60
s 4
f 26/28/61 21/25/62 31/34/63 30/32/64
s 5
f 21/25/65 22/24/66 32/35/67 31/36/68
s 6
f 22/24/69 24/27/70 28/31/71 32/37/72
s 7
f 23/26/73 20/23/74 33/38/75 27/30/76
s 8
f 20/23/77 19/22/78 34/39/79 33/40/80
s 9
f 19/22/81 25/29/82 29/33/83 34/41/84
s 2
f 28/31/56 27/30/55 35/42/85 36/43/86
s 3
f 29/33/60 30/32/59 38/44/87 37/45/88
s 4
f 30/32/64 31/34/63 39/46/89 38/44/90
s 6
f 32/37/72 28/31/71 36/43/91 40/47/92
s 7
f 27/30/76 33/38/75 41/48/93 35/42/94
s 9
f 34/41/84 29/33/83 37/45/95 42/49/96
s 5
f 31/36/68 32/35/67 40/50/97 39/51/98
s 8
f 33/40/80 34/39/79 42/52/99 41/53/100
s off
f 36/43/101 35/42/102 43/54/103 44/55/104
f 37/56/105 38/57/106 46/58/107 45/59/108
f 38/57/109 39/60/110 47/61/111 46/58/112
f 40/62/113 36/43/114 44/55/115 48/63/116
f 35/42/117 41/64/118 49/65/119 43/54/120
f 42/66/121 37/56/122 45/59/123 50/67/124
f 39/60/125 40/62/126 48/63/127 47/61/128
f 41/64/129 42/66/130 50/67/131 49/65/132
f 44/55/133 43/54/134 51/68/135 52/69/136
f 45/59/137 46/58/138 54/70/139 53/71/140
f 46/58/141 47/61/142 55/72/143 54/70/144
f 48/63/145 44/55/146 52/69/147 56/73/148
s 10
f 43/54/149 49/65/150 57/74/151 51/68/152
s off
f 50/67/153 45/59/154 53/71/155 58/75/156
f 47/61/157 48/63/158 56/73/159 55/72/160
s 10
f 49/65/150 50/67/161 58/75/162 57/74/151
s off
f 52/69/163 51/68/164 57/74/165
f 53/71/166 54/70/167 56/73/168
f 54/70/169 55/72/170 56/73/171
f 56/73/172 52/69/173 57/74/174
f 58/75/175 53/71/176 56/73/177 57/74/178
g default
v 3.272503 19.775551 -1.200141
v 4.695588 20.292372 -1.200141
v 3.012864 22.210901 -1.200141
v 4.919668 22.414190 -1.200141
v 4.976381 20.626560 -1.200141
v 5.201271 22.170023 -1.200141
v 2.976736 19.981335 -1.200141
v 2.770881 21.912205 -1.200141
v 5.153196 20.563446 -0.825357
v 5.405762 22.273163 -0.825342
v 2.819400 19.887299 -0.825362
v 2.594464 21.971766 -0.825342
v 2.925138 22.380323 -0.825352
v 4.975192 22.601852 -0.825352
v 4.815892 20.176947 -0.825362
v 3.227332 19.616667 -0.825362
v 5.153196 20.563446 -0.700942
v 5.405762 22.273163 -0.700927
v 2.819400 19.887299 -0.700947
v 2.594464 21.971764 -0.700927
v 2.925138 22.380323 -0.697403
v 4.975192 22.601852 -0.697403
v 4.815892 20.176947 -0.697413
v 3.227332 19.616667 -0.697413
v 5.073010 20.605377 -0.700807
v 5.306198 22.183920 -0.700793
v 2.918270 19.981106 -0.700810
v 2.710592 21.905645 -0.700793
v 3.015895 22.282858 -0.697539
v 4.908663 22.487391 -0.697539
v 4.761585 20.248529 -0.697548
v 3.294904 19.731237 -0.697550
v 5.073010 20.605377 -0.822857
v 5.306198 22.183920 -0.822856
v 2.918270 19.981106 -0.822857
v 2.710592 21.905645 -0.822856
v 3.015895 22.282858 -0.822649
v 4.908663 22.487391 -0.822649
v 4.761585 20.248529 -0.822649
v 3.294904 19.731237 -0.822649
vt 0.677981 0.648375
vt 0.650841 0.599609
vt 0.690964 0.577872
vt 0.704330 0.624345
vt 0.698677 0.581488
vt 0.706933 0.614715
vt 0.670119 0.646067
vt 0.649022 0.608185
vt 0.706530 0.576404
vt 0.715872 0.613279
vt 0.663182 0.652089
vt 0.640224 0.610777
vt 0.639497 0.598197
vt 0.644584 0.591684
vt 0.688002 0.568089
vt 0.697141 0.568338
vt 0.714915 0.625277
vt 0.712188 0.629966
vt 0.682506 0.656970
vt 0.673171 0.658489
vt 0.709030 0.575407
vt 0.718574 0.612725
vt 0.660858 0.653609
vt 0.637648 0.612011
vt 0.636014 0.598614
vt 0.699515 0.565845
vt 0.718210 0.625344
vt 0.670984 0.661237
vt 0.643030 0.588978
vt 0.686616 0.565282
vt 0.714271 0.632168
vt 0.684530 0.659244
vt 0.711529 0.577250
vt 0.720301 0.611526
vt 0.774339 0.619787
vt 0.771867 0.617958
vt 0.771072 0.575700
vt 0.773474 0.573854
vt 0.761858 0.566856
vt 0.763597 0.564445
vt 0.718804 0.565437
vt 0.720627 0.567765
vt 0.729261 0.619659
vt 0.728262 0.621436
vt 0.764582 0.628375
vt 0.762659 0.626057
vt 0.713918 0.577354
vt 0.722709 0.610459
vt 0.769456 0.617514
vt 0.768630 0.576248
vt 0.761460 0.569351
vt 0.721123 0.570249
vt 0.730127 0.617143
vt 0.762524 0.623621
vn -0.000000 0.000000 -1.000000
vn -0.000000 0.000000 -1.000000
vn -0.000000 0.000000 -1.000000
vn -0.000000 0.000000 -1.000000
vn 0.000000 0.000000 -1.000000
vn 0.000000 0.000000 -1.000000
vn 0.000000 0.000000 -1.000000
vn 0.000000 0.000000 -1.000000
vn 0.886521 -0.130109 -0.444018
vn 0.935036 -0.137501 -0.326804
vn 0.930335 -0.136781 -0.340247
vn 0.886521 -0.130109 -0.444018
vn -0.907524 -0.097363 -0.408559
vn -0.946451 -0.101706 -0.306408
vn -0.946508 -0.101712 -0.306230
vn -0.907524 -0.097363 -0.408559
vn -0.704426 0.570361 -0.422460
vn -0.739036 0.598314 -0.309590
vn -0.739459 0.598655 -0.307917
vn -0.704426 0.570361 -0.422460
vn -0.096302 0.896984 -0.431445
vn -0.101165 0.940547 -0.324248
vn -0.101198 0.940835 -0.323402
vn -0.096302 0.896984 -0.431445
vn 0.556153 0.691400 -0.461151
vn 0.584074 0.737875 -0.338226
vn 0.584850 0.739242 -0.333873
vn 0.556153 0.691400 -0.461151
vn 0.690664 -0.592345 -0.414862
vn 0.720526 -0.621077 -0.308391
vn 0.718704 -0.619293 -0.316134
vn 0.690664 -0.592345 -0.414862
vn 0.314967 -0.880668 -0.353863
vn 0.324052 -0.909718 -0.259623
vn 0.324259 -0.910399 -0.256964
vn 0.314967 -0.880668 -0.353863
vn -0.514860 -0.760484 -0.395707
vn -0.534288 -0.793923 -0.290210
vn -0.534856 -0.794930 -0.286384
vn -0.514860 -0.760484 -0.395707
vn 0.989264 -0.146138 0.000000
vn 0.989264 -0.146138 0.000000
vn -0.994228 -0.107288 0.000000
vn -0.994228 -0.107288 0.000000
vn -0.777305 0.629125 0.000000
vn -0.777305 0.629124 0.000000
vn 0.606786 0.794865 0.000000
vn 0.606786 0.794865 0.000000
vn 0.753429 -0.657529 0.000000
vn 0.753429 -0.657529 0.000000
vn -0.552828 -0.833296 0.000000
vn -0.552828 -0.833296 0.000000
vn -0.107435 0.994212 0.000000
vn -0.107435 0.994212 0.000000
vn 0.332615 -0.943063 0.000000
vn 0.332615 -0.943063 0.000000
vn 0.001560 -0.000239 0.999999
vn 0.001560 -0.000239 0.999999
vn 0.001560 -0.000239 0.999999
vn 0.001560 -0.000239 0.999999
vn -0.001239 -0.000143 0.999999
vn -0.001239 -0.000143 0.999999
vn -0.001239 -0.000143 0.999999
vn -0.001239 -0.000143 0.999999
vn -0.004152 -0.005265 0.999978
vn -0.004152 -0.005265 0.999978
vn -0.004152 -0.005265 0.999978
vn -0.004152 -0.005265 0.999978
vn 0.005039 -0.004120 0.999979
vn 0.005039 -0.004120 0.999979
vn 0.005039 -0.004120 0.999979
vn 0.005039 -0.004120 0.999979
vn 0.004437 0.005257 0.999976
vn 0.004437 0.005257 0.999976
vn 0.004437 0.005257 0.999976
vn 0.004437 0.005257 0.999976
vn -0.005660 0.004521 0.999974
vn -0.005660 0.004521 0.999974
vn -0.005660 0.004521 0.999974
vn -0.005660 0.004521 0.999974
vn 0.000137 -0.001271 0.999999
vn 0.000137 -0.001271 0.999999
vn 0.000137 -0.001271 0.999999
vn 0.000137 -0.001271 0.999999
vn -0.000528 0.001495 0.999999
vn -0.000528 0.001495 0.999999
vn -0.000528 0.001495 0.999999
vn -0.000528 0.001495 0.999999
vn -0.989264 0.146137 0.000000
vn -0.989264 0.146137 0.000000
vn -0.989264 0.146137 0.000000
vn -0.989264 0.146137 0.000000
vn 0.994228 0.107287 0.000000
vn 0.994228 0.107287 0.000000
vn 0.994228 0.107287 0.000000
vn 0.994228 0.107287 0.000000
vn 0.777305 -0.629124 0.000000
vn 0.777305 -0.629124 0.000000
vn 0.777305 -0.629124 0.000000
vn 0.777305 -0.629124 0.000000
vn -0.606786 -0.794865 0.000000
vn -0.606786 -0.794865 0.000000
vn -0.606786 -0.794865 0.000000
vn -0.606786 -0.794865 0.000000
vn -0.753430 0.657528 0.000000
vn -0.753430 0.657528 0.000000
vn -0.440193 0.897903 0.000000
vn -0.439809 0.898091 0.000000
vn 0.552828 0.833295 0.000000
vn 0.552828 0.833295 0.000000
vn 0.552828 0.833295 0.000000
vn 0.552828 0.833295 0.000000
vn 0.107435 -0.994212 0.000000
vn 0.107435 -0.994212 0.000000
vn 0.107435 -0.994212 0.000000
vn 0.107435 -0.994212 0.000000
vn -0.332614 0.943063 0.000000
vn -0.332614 0.943063 0.000000
vn 0.000804 -0.000119 1.000000
vn 0.000804 -0.000119 1.000000
vn 0.000804 -0.000119 1.000000
vn -0.000092 -0.000011 1.000000
vn -0.000092 -0.000011 1.000000
vn -0.000092 -0.000011 1.000000
vn 0.000065 -0.000603 1.000000
vn 0.000065 -0.000603 1.000000
vn 0.000065 -0.000603 1.000000
vn 0.000497 -0.000033 1.000000
vn 0.000497 -0.000033 1.000000
vn 0.000497 -0.000033 1.000000
vn -0.000124 0.000072 1.000000
vn -0.000124 0.000072 1.000000
vn -0.000124 0.000072 1.000000
vn -0.000124 0.000072 1.000000
s 1
g group1 uploads_files_730998_Gundam:polySurface666 polySurface11
usemtl uploads_files_730998_Gundam:lambert10SG
f 59/76/179 61/77/180 62/78/181 60/79/182
f 62/78/181 64/80/183 63/81/184 60/79/182
f 59/76/179 65/82/185 66/83/186 61/77/180
s 2
f 64/80/187 68/84/188 67/85/189 63/81/190
s 3
f 65/82/191 69/86/192 70/87/193 66/83/194
s 4
f 66/83/195 70/87/196 71/88/197 61/77/198
s 5
f 61/77/199 71/89/200 72/90/201 62/78/202
s 6
f 62/78/203 72/91/204 68/84/205 64/80/206
s 7
f 63/81/207 67/85/208 73/92/209 60/79/210
s 8
f 60/79/211 73/93/212 74/94/213 59/76/214
s 9
f 59/76/215 74/95/216 69/86/217 65/82/218
s 2
f 68/84/188 76/96/219 75/97/220 67/85/189
s 3
f 69/86/192 77/98/221 78/99/222 70/87/193
s 4
f 70/87/196 78/99/223 79/100/224 71/88/197
s 6
f 72/91/204 80/101/225 76/96/226 68/84/205
s 7
f 67/85/208 75/97/227 81/102/228 73/92/209
s 9
f 74/95/216 82/103/229 77/98/230 69/86/217
s 5
f 71/89/200 79/104/231 80/105/232 72/90/201
s 8
f 73/93/212 81/106/233 82/107/234 74/94/213
s off
f 76/96/235 84/108/236 83/109/237 75/97/238
f 77/110/239 85/111/240 86/112/241 78/113/242
f 78/113/243 86/112/244 87/114/245 79/115/246
f 80/116/247 88/117/248 84/108/249 76/96/250
f 75/97/251 83/109/252 89/118/253 81/119/254
f 82/120/255 90/121/256 85/111/257 77/110/258
f 79/115/259 87/114/260 88/117/261 80/116/262
f 81/119/263 89/118/264 90/121/265 82/120/266
f 84/108/267 92/122/268 91/123/269 83/109/270
f 85/111/271 93/124/272 94/125/273 86/112/274
f 86/112/275 94/125/276 95/126/277 87/114/278
f 88/117/279 96/127/280 92/122/281 84/108/282
s 10
f 83/109/283 91/123/284 97/128/285 89/118/286
s off
f 90/121/287 98/129/288 93/124/289 85/111/290
f 87/114/291 95/126/292 96/127/293 88/117/294
s 10
f 89/118/286 97/128/285 98/129/295 90/121/296
s off
f 92/122/297 97/128/298 91/123/299
f 93/124/300 96/127/301 94/125/302
f 94/125/303 96/127/304 95/126/305
f 96/127/306 97/128/307 92/122/308
f 98/129/309 97/128/310 96/127/311 93/124/312
